<svg width="136" height="102" viewBox="0 0 136 102" fill="none" xmlns="http://www.w3.org/2000/svg">
<path d="M88.4 68H98.6C100.3 68 102 66.3 102 64.6V28.9C102 27.2 100.3 25.5 98.6 25.5H88.4C86.7 25.5 85 27.2 85 28.9V64.6C85 66.3 86.7 68 88.4 68V68ZM113.9 68H124.1C125.8 68 127.5 66.3 127.5 64.6V3.4C127.5 1.7 125.8 0 124.1 0H113.9C112.2 0 110.5 1.7 110.5 3.4V64.6C110.5 66.3 112.2 68 113.9 68ZM37.4 68H47.6C49.3 68 51 66.3 51 64.6V45.9C51 44.2 49.3 42.5 47.6 42.5H37.4C35.7 42.5 34 44.2 34 45.9V64.6C34 66.3 35.7 68 37.4 68ZM62.9 68H73.1C74.8 68 76.5 66.3 76.5 64.6V11.9C76.5 10.2 74.8 8.5 73.1 8.5H62.9C61.2 8.5 59.5 10.2 59.5 11.9V64.6C59.5 66.3 61.2 68 62.9 68V68ZM131.75 85H17V4.25C17 1.90187 15.0981 0 12.75 0H4.25C1.90187 0 0 1.90187 0 4.25V93.5C0 98.1936 3.80641 102 8.5 102H131.75C134.098 102 136 100.098 136 97.75V89.25C136 86.9019 134.098 85 131.75 85Z" fill="url(#paint0_linear)"/>
<defs>
<linearGradient id="paint0_linear" x1="68" y1="0" x2="68" y2="102" gradientUnits="userSpaceOnUse">
<stop stop-color="#4ADAAB"/>
<stop offset="0.979167" stop-color="#0BB9C5"/>
</linearGradient>
</defs>
</svg>
