<svg width="129" height="129" viewBox="0 0 129 129" fill="none" xmlns="http://www.w3.org/2000/svg">
<path d="M64.5 2.01562C29.9824 2.01562 2.01562 29.9824 2.01562 64.5C2.01562 99.0176 29.9824 126.984 64.5 126.984C99.0176 126.984 126.984 99.0176 126.984 64.5C126.984 29.9824 99.0176 2.01562 64.5 2.01562ZM87.8031 80.877L82.7641 87.1758C82.4334 87.5892 82.0245 87.9335 81.5608 88.1889C81.097 88.4443 80.5875 88.6059 80.0613 88.6644C79.5352 88.7228 79.0026 88.6771 78.4941 88.5298C77.9856 88.3824 77.5111 88.1364 77.0977 87.8057L60.2168 75.2786C59.0373 74.3342 58.0852 73.1367 57.4311 71.7747C56.7769 70.4127 56.4373 68.921 56.4375 67.4101V28.2188C56.4375 27.1496 56.8622 26.1242 57.6182 25.3682C58.3742 24.6122 59.3996 24.1875 60.4688 24.1875H68.5312C69.6004 24.1875 70.6258 24.6122 71.3818 25.3682C72.1378 26.1242 72.5625 27.1496 72.5625 28.2188V64.5L87.1758 75.208C87.5894 75.5389 87.9337 75.9481 88.1892 76.4121C88.4446 76.8762 88.606 77.386 88.6643 77.9125C88.7225 78.4389 88.6765 78.9717 88.5287 79.4804C88.381 79.9891 88.1344 80.4636 87.8031 80.877Z" fill="url(#paint0_linear)"/>
<defs>
<linearGradient id="paint0_linear" x1="64.5" y1="2.01562" x2="64.5" y2="126.984" gradientUnits="userSpaceOnUse">
<stop stop-color="#4ADAAB"/>
<stop offset="1" stop-color="#0BB9C5"/>
</linearGradient>
</defs>
</svg>
