<svg width="90" height="144" viewBox="0 0 90 144" fill="none" xmlns="http://www.w3.org/2000/svg">
<path d="M76.5 0H13.5C6.04688 0 0 6.04688 0 13.5V130.5C0 137.953 6.04688 144 13.5 144H76.5C83.9531 144 90 137.953 90 130.5V13.5C90 6.04688 83.9531 0 76.5 0ZM45 135C40.0219 135 36 130.978 36 126C36 121.022 40.0219 117 45 117C49.9781 117 54 121.022 54 126C54 130.978 49.9781 135 45 135ZM76.5 104.625C76.5 106.481 74.9812 108 73.125 108H16.875C15.0188 108 13.5 106.481 13.5 104.625V16.875C13.5 15.0188 15.0188 13.5 16.875 13.5H73.125C74.9812 13.5 76.5 15.0188 76.5 16.875V104.625Z" fill="url(#paint0_linear)"/>
<defs>
<linearGradient id="paint0_linear" x1="45" y1="0" x2="45" y2="144" gradientUnits="userSpaceOnUse">
<stop stop-color="#4ADAAB"/>
<stop offset="1" stop-color="#0BB9C5"/>
</linearGradient>
</defs>
</svg>
